<?xml version="1.0" encoding="UTF-8" standalone="no"?>
<!DOCTYPE svg PUBLIC "-//W3C//DTD SVG 1.1//EN"
 "http://www.w3.org/Graphics/SVG/1.1/DTD/svg11.dtd">
<!-- Generated by graphviz version 2.40.1 (20161225.0304)
 -->
<!-- Title: G Pages: 1 -->
<svg width="290pt" height="358pt"
 viewBox="0.00 0.00 290.00 358.00" xmlns="http://www.w3.org/2000/svg" xmlns:xlink="http://www.w3.org/1999/xlink">
<g id="graph0" class="graph" transform="scale(1 1) rotate(0) translate(4 354)">
<title>G</title>
<polygon fill="#ffffff" stroke="transparent" points="-4,4 -4,-354 286,-354 286,4 -4,4"/>
<!-- A0 -->
<g id="node1" class="node">
<title>A0</title>
<polygon fill="none" stroke="#000000" points="38,-260 38,-292 109,-292 109,-260 38,-260"/>
<text text-anchor="start" x="47.5245" y="-273" font-family="Helvetica,sans-Serif" font-size="10.00" fill="#000000">+ICustomer</text>
<polygon fill="none" stroke="#000000" points="38,-228 38,-260 109,-260 109,-228 38,-228"/>
<text text-anchor="start" x="57.6685" y="-241" font-family="Helvetica,sans-Serif" font-size="10.00" fill="#000000">Greet()</text>
</g>
<!-- A1 -->
<g id="node2" class="node">
<title>A1</title>
<polygon fill="none" stroke="#000000" points="0,-88 0,-120 146,-120 146,-88 0,-88"/>
<text text-anchor="start" x="48.414" y="-101" font-family="Helvetica,sans-Serif" font-size="10.00" fill="#000000">+Customer</text>
<polygon fill="none" stroke="#000000" points="0,-32 0,-88 146,-88 146,-32 0,-32"/>
<text text-anchor="start" x="43.9655" y="-69" font-family="Helvetica,sans-Serif" font-size="10.00" fill="#000000">+name:string</text>
<text text-anchor="start" x="16.891" y="-57" font-family="Helvetica,sans-Serif" font-size="10.00" fill="#000000">&#45;creditCardNumber:string</text>
<text text-anchor="start" x="9.5275" y="-45" font-family="Helvetica,sans-Serif" font-size="10.00" fill="#000000">+CreditCardNumber:string:w</text>
<polygon fill="none" stroke="#000000" points="0,0 0,-32 146,-32 146,0 0,0"/>
<text text-anchor="start" x="54.249" y="-13" font-family="Helvetica,sans-Serif" font-size="10.00" fill="#000000">+Greet()</text>
</g>
<!-- A0&#45;&gt;A1 -->
<g id="edge1" class="edge">
<title>A0&#45;&gt;A1</title>
<path fill="none" stroke="#000000" d="M73,-217.5148C73,-189.2325 73,-151.6511 73,-120.2905"/>
<polygon fill="none" stroke="#000000" points="69.5001,-217.8665 73,-227.8665 76.5001,-217.8666 69.5001,-217.8665"/>
</g>
<!-- A2 -->
<g id="node3" class="node">
<title>A2</title>
<polygon fill="none" stroke="#000000" points="170,-318 170,-350 276,-350 276,-318 170,-318"/>
<text text-anchor="start" x="195.915" y="-331" font-family="Helvetica,sans-Serif" font-size="10.00" fill="#000000">+A:HotDrink</text>
<polygon fill="none" stroke="#000000" points="170,-226 170,-318 276,-318 276,-226 170,-226"/>
<text text-anchor="start" x="194.516" y="-299" font-family="Helvetica,sans-Serif" font-size="10.00" fill="#000000">+instant:bool</text>
<text text-anchor="start" x="200.3595" y="-287" font-family="Helvetica,sans-Serif" font-size="10.00" fill="#000000">+milk:bool</text>
<text text-anchor="start" x="197.9945" y="-275" font-family="Helvetica,sans-Serif" font-size="10.00" fill="#000000">&#45;sugar:byte</text>
<text text-anchor="start" x="193.686" y="-263" font-family="Helvetica,sans-Serif" font-size="10.00" fill="#000000">+brand:string</text>
<text text-anchor="start" x="197.5795" y="-251" font-family="Helvetica,sans-Serif" font-size="10.00" fill="#000000">+size:string</text>
<text text-anchor="start" x="191.4655" y="-239" font-family="Helvetica,sans-Serif" font-size="10.00" fill="#000000">+customer:obj</text>
<polygon fill="none" stroke="#000000" points="170,-170 170,-226 276,-226 276,-170 170,-170"/>
<text text-anchor="start" x="197.31" y="-207" font-family="Helvetica,sans-Serif" font-size="10.00" fill="#000000">+HotDrink()</text>
<text text-anchor="start" x="183.698" y="-195" font-family="Helvetica,sans-Serif" font-size="10.00" fill="#000000">+HotDrink():string</text>
<text text-anchor="start" x="179.793" y="-183" font-family="Helvetica,sans-Serif" font-size="10.00" fill="#000000">+AddSugar():byte:v</text>
</g>
<!-- A3 -->
<g id="node4" class="node">
<title>A3</title>
<polygon fill="none" stroke="#000000" points="164,-88 164,-120 282,-120 282,-88 164,-88"/>
<text text-anchor="start" x="190.906" y="-101" font-family="Helvetica,sans-Serif" font-size="10.00" fill="#000000">+CupOfCoffee</text>
<polygon fill="none" stroke="#000000" points="164,-56 164,-88 282,-88 282,-56 164,-56"/>
<text text-anchor="start" x="184.237" y="-69" font-family="Helvetica,sans-Serif" font-size="10.00" fill="#000000">+beanType:string</text>
<polygon fill="none" stroke="#000000" points="164,0 164,-56 282,-56 282,0 164,0"/>
<text text-anchor="start" x="187.577" y="-37" font-family="Helvetica,sans-Serif" font-size="10.00" fill="#000000">+CupOfCoffee()</text>
<text text-anchor="start" x="173.965" y="-25" font-family="Helvetica,sans-Serif" font-size="10.00" fill="#000000">+CupOfCoffee():string</text>
<text text-anchor="start" x="198.135" y="-13" font-family="Helvetica,sans-Serif" font-size="10.00" fill="#000000">+Steam():o</text>
</g>
<!-- A2&#45;&gt;A3 -->
<g id="edge2" class="edge">
<title>A2&#45;&gt;A3</title>
<path fill="none" stroke="#000000" stroke-dasharray="5,2" d="M223,-159.6168C223,-146.0899 223,-132.5724 223,-120.0542"/>
<polygon fill="#000000" stroke="#000000" points="223,-169.9463 218.5001,-159.9463 223,-164.9463 223.0001,-159.9463 223.0001,-159.9463 223.0001,-159.9463 223,-164.9463 227.5001,-159.9463 223,-169.9463 223,-169.9463"/>
</g>
</g>
</svg>
