<?xml version="1.0" encoding="UTF-8" standalone="no"?>
<!DOCTYPE svg PUBLIC "-//W3C//DTD SVG 1.1//EN"
 "http://www.w3.org/Graphics/SVG/1.1/DTD/svg11.dtd">
<!-- Generated by graphviz version 2.40.1 (20161225.0304)
 -->
<!-- Title: G Pages: 1 -->
<svg width="106pt" height="254pt"
 viewBox="0.00 0.00 106.00 254.00" xmlns="http://www.w3.org/2000/svg" xmlns:xlink="http://www.w3.org/1999/xlink">
<g id="graph0" class="graph" transform="scale(1 1) rotate(0) translate(4 250)">
<title>G</title>
<polygon fill="#ffffff" stroke="transparent" points="-4,4 -4,-250 102,-250 102,4 -4,4"/>
<!-- A0 -->
<g id="node1" class="node">
<title>A0</title>
<polygon fill="none" stroke="#000000" points="0,-214 0,-246 98,-246 98,-214 0,-214"/>
<text text-anchor="start" x="26.6295" y="-227" font-family="Helvetica,sans-Serif" font-size="10.00" fill="#000000">+ISettings</text>
<polygon fill="none" stroke="#000000" points="0,-170 0,-214 98,-214 98,-170 0,-170"/>
<text text-anchor="start" x="9.962" y="-195" font-family="Helvetica,sans-Serif" font-size="10.00" fill="#000000">+darkTheme:bool</text>
<text text-anchor="start" x="21.351" y="-183" font-family="Helvetica,sans-Serif" font-size="10.00" fill="#000000">+fontSize:int</text>
</g>
<!-- A1 -->
<g id="node2" class="node">
<title>A1</title>
<polygon fill="none" stroke="#000000" points="3,-88 3,-120 95,-120 95,-88 3,-88"/>
<text text-anchor="start" x="28.019" y="-101" font-family="Helvetica,sans-Serif" font-size="10.00" fill="#000000">+Settings</text>
<polygon fill="none" stroke="#000000" points="3,-44 3,-88 95,-88 95,-44 3,-44"/>
<text text-anchor="start" x="12.8815" y="-69" font-family="Helvetica,sans-Serif" font-size="10.00" fill="#000000">darkTheme:bool</text>
<text text-anchor="start" x="21.351" y="-57" font-family="Helvetica,sans-Serif" font-size="10.00" fill="#000000">+fontSize:int</text>
<polygon fill="none" stroke="#000000" points="3,0 3,-44 95,-44 95,0 3,0"/>
<text text-anchor="start" x="29.4185" y="-25" font-family="Helvetica,sans-Serif" font-size="10.00" fill="#000000">+bDark()</text>
<text text-anchor="start" x="24.69" y="-13" font-family="Helvetica,sans-Serif" font-size="10.00" fill="#000000">+fontSize()</text>
</g>
<!-- A0&#45;&gt;A1 -->
<g id="edge1" class="edge">
<title>A0&#45;&gt;A1</title>
<path fill="none" stroke="#000000" d="M49,-159.5954C49,-146.9821 49,-133.2373 49,-120.0989"/>
<polygon fill="none" stroke="#000000" points="45.5001,-159.8863 49,-169.8863 52.5001,-159.8864 45.5001,-159.8863"/>
</g>
</g>
</svg>
