<?xml version="1.0" encoding="UTF-8" standalone="no"?>
<!DOCTYPE svg PUBLIC "-//W3C//DTD SVG 1.1//EN"
 "http://www.w3.org/Graphics/SVG/1.1/DTD/svg11.dtd">
<!-- Generated by graphviz version 2.40.1 (20161225.0304)
 -->
<!-- Title: G Pages: 1 -->
<svg width="265pt" height="358pt"
 viewBox="0.00 0.00 264.50 358.00" xmlns="http://www.w3.org/2000/svg" xmlns:xlink="http://www.w3.org/1999/xlink">
<g id="graph0" class="graph" transform="scale(1 1) rotate(0) translate(4 354)">
<title>G</title>
<polygon fill="#ffffff" stroke="transparent" points="-4,4 -4,-354 260.5,-354 260.5,4 -4,4"/>
<!-- A0 -->
<g id="node1" class="node">
<title>A0</title>
<polygon fill="none" stroke="#000000" points=".5,-284 .5,-316 121.5,-316 121.5,-284 .5,-284"/>
<text text-anchor="start" x="10.285" y="-297" font-family="Helvetica,sans-Serif" font-size="10.00" fill="#000000">+I:SkateboardInterface</text>
<polygon fill="none" stroke="#000000" points=".5,-228 .5,-284 121.5,-284 121.5,-228 .5,-228"/>
<text text-anchor="start" x="35.1655" y="-265" font-family="Helvetica,sans-Serif" font-size="10.00" fill="#000000">Stationery()</text>
<text text-anchor="start" x="35.72" y="-253" font-family="Helvetica,sans-Serif" font-size="10.00" fill="#000000">Balancing()</text>
<text text-anchor="start" x="39.609" y="-241" font-family="Helvetica,sans-Serif" font-size="10.00" fill="#000000">Pushing()</text>
</g>
<!-- A2 -->
<g id="node3" class="node">
<title>A2</title>
<polygon fill="none" stroke="#000000" points="4.5,-100 4.5,-132 114.5,-132 114.5,-100 4.5,-100"/>
<text text-anchor="start" x="38.249" y="-113" font-family="Helvetica,sans-Serif" font-size="10.00" fill="#000000">+Cruising</text>
<polygon fill="none" stroke="#000000" points="4.5,-68 4.5,-100 114.5,-100 114.5,-68 4.5,-68"/>
<text text-anchor="start" x="14.0685" y="-81" font-family="Helvetica,sans-Serif" font-size="10.00" fill="#000000">+balancingOnly:bool</text>
<polygon fill="none" stroke="#000000" points="4.5,-12 4.5,-68 114.5,-68 114.5,-12 4.5,-12"/>
<text text-anchor="start" x="27.1315" y="-49" font-family="Helvetica,sans-Serif" font-size="10.00" fill="#000000">+Balancing():o</text>
<text text-anchor="start" x="31.0205" y="-37" font-family="Helvetica,sans-Serif" font-size="10.00" fill="#000000">+Pushing():o</text>
<text text-anchor="start" x="35.0505" y="-25" font-family="Helvetica,sans-Serif" font-size="10.00" fill="#000000">Speed():int</text>
</g>
<!-- A0&#45;&gt;A2 -->
<g id="edge3" class="edge">
<title>A0&#45;&gt;A2</title>
<path fill="none" stroke="#000000" d="M60.2271,-217.4117C60.0951,-191.024 59.9364,-159.2801 59.801,-132.193"/>
<polygon fill="none" stroke="#000000" points="56.728,-217.6312 60.2781,-227.6135 63.7279,-217.5961 56.728,-217.6312"/>
</g>
<!-- A3 -->
<g id="node4" class="node">
<title>A3</title>
<polygon fill="none" stroke="#000000" points="132.5,-112 132.5,-144 256.5,-144 256.5,-112 132.5,-112"/>
<text text-anchor="start" x="181.583" y="-125" font-family="Helvetica,sans-Serif" font-size="10.00" fill="#000000">+Ollie</text>
<polygon fill="none" stroke="#000000" points="132.5,-80 132.5,-112 256.5,-112 256.5,-80 132.5,-80"/>
<text text-anchor="start" x="154.074" y="-93" font-family="Helvetica,sans-Serif" font-size="10.00" fill="#000000">+olliePosition:bool</text>
<polygon fill="none" stroke="#000000" points="132.5,0 132.5,-80 256.5,-80 256.5,0 132.5,0"/>
<text text-anchor="start" x="162.1315" y="-61" font-family="Helvetica,sans-Serif" font-size="10.00" fill="#000000">+Balancing():o</text>
<text text-anchor="start" x="166.0205" y="-49" font-family="Helvetica,sans-Serif" font-size="10.00" fill="#000000">+Pushing():o</text>
<text text-anchor="start" x="147.3995" y="-37" font-family="Helvetica,sans-Serif" font-size="10.00" fill="#000000">+boardPopped():bool</text>
<text text-anchor="start" x="142.4105" y="-25" font-family="Helvetica,sans-Serif" font-size="10.00" fill="#000000">+footDragFlicked():bool</text>
<text text-anchor="start" x="154.9165" y="-13" font-family="Helvetica,sans-Serif" font-size="10.00" fill="#000000">+successfulOllie()</text>
</g>
<!-- A0&#45;&gt;A3 -->
<g id="edge4" class="edge">
<title>A0&#45;&gt;A3</title>
<path fill="none" stroke="#000000" d="M95.9795,-219.0456C111.3483,-196.107 129.5831,-168.8909 146.1614,-144.1472"/>
<polygon fill="none" stroke="#000000" points="92.8974,-217.3576 90.2389,-227.6135 98.7128,-221.254 92.8974,-217.3576"/>
</g>
<!-- A1 -->
<g id="node2" class="node">
<title>A1</title>
<polygon fill="none" stroke="#000000" points="140.5,-318 140.5,-350 246.5,-350 246.5,-318 140.5,-318"/>
<text text-anchor="start" x="160.291" y="-331" font-family="Helvetica,sans-Serif" font-size="10.00" fill="#000000">+A:Skateboard</text>
<polygon fill="none" stroke="#000000" points="140.5,-250 140.5,-318 246.5,-318 246.5,-250 140.5,-250"/>
<text text-anchor="start" x="152.7975" y="-299" font-family="Helvetica,sans-Serif" font-size="10.00" fill="#000000">+wheelType:string</text>
<text text-anchor="start" x="161.1315" y="-287" font-family="Helvetica,sans-Serif" font-size="10.00" fill="#000000">+wheelSize:int</text>
<text text-anchor="start" x="150.2975" y="-275" font-family="Helvetica,sans-Serif" font-size="10.00" fill="#000000">+trucksBrand:string</text>
<text text-anchor="start" x="153.628" y="-263" font-family="Helvetica,sans-Serif" font-size="10.00" fill="#000000">+isStationery:bool</text>
<polygon fill="none" stroke="#000000" points="140.5,-194 140.5,-250 246.5,-250 246.5,-194 140.5,-194"/>
<text text-anchor="start" x="150.019" y="-231" font-family="Helvetica,sans-Serif" font-size="10.00" fill="#000000">+Stationery():bool:v</text>
<text text-anchor="start" x="161.1315" y="-219" font-family="Helvetica,sans-Serif" font-size="10.00" fill="#000000">+Balancing():a</text>
<text text-anchor="start" x="167.94" y="-207" font-family="Helvetica,sans-Serif" font-size="10.00" fill="#000000">Pushing():a</text>
</g>
<!-- A1&#45;&gt;A2 -->
<g id="edge1" class="edge">
<title>A1&#45;&gt;A2</title>
<path fill="none" stroke="#000000" stroke-dasharray="5,2" d="M135.2813,-185.1063C123.3188,-167.2519 110.9763,-148.8302 99.8148,-132.1713"/>
<polygon fill="#000000" stroke="#000000" points="141.1164,-193.8155 131.8117,-188.0126 138.3333,-189.6616 135.5502,-185.5078 135.5502,-185.5078 135.5502,-185.5078 138.3333,-189.6616 139.2887,-183.003 141.1164,-193.8155 141.1164,-193.8155"/>
</g>
<!-- A1&#45;&gt;A3 -->
<g id="edge2" class="edge">
<title>A1&#45;&gt;A3</title>
<path fill="none" stroke="#000000" stroke-dasharray="5,2" d="M193.9411,-183.7825C194.0071,-170.5712 194.0746,-157.0817 194.1387,-144.2537"/>
<polygon fill="#000000" stroke="#000000" points="193.8909,-193.8155 189.4411,-183.7931 193.916,-188.8156 193.941,-183.8156 193.941,-183.8156 193.941,-183.8156 193.916,-188.8156 198.441,-183.8382 193.8909,-193.8155 193.8909,-193.8155"/>
</g>
</g>
</svg>
