<?xml version="1.0" encoding="UTF-8" standalone="no"?>
<!DOCTYPE svg PUBLIC "-//W3C//DTD SVG 1.1//EN"
 "http://www.w3.org/Graphics/SVG/1.1/DTD/svg11.dtd">
<!-- Generated by graphviz version 2.40.1 (20161225.0304)
 -->
<!-- Title: G Pages: 1 -->
<svg width="100pt" height="230pt"
 viewBox="0.00 0.00 100.00 230.00" xmlns="http://www.w3.org/2000/svg" xmlns:xlink="http://www.w3.org/1999/xlink">
<g id="graph0" class="graph" transform="scale(1 1) rotate(0) translate(4 226)">
<title>G</title>
<polygon fill="#ffffff" stroke="transparent" points="-4,4 -4,-226 96,-226 96,4 -4,4"/>
<!-- A0 -->
<g id="node1" class="node">
<title>A0</title>
<polygon fill="none" stroke="#000000" points="0,-190 0,-222 92,-222 92,-190 0,-190"/>
<text text-anchor="start" x="23.9175" y="-203" font-family="Helvetica,sans-Serif" font-size="10.00" fill="#000000">+MyClass</text>
<polygon fill="none" stroke="#000000" points="0,-146 0,-190 92,-190 92,-146 0,-146"/>
<text text-anchor="start" x="11.002" y="-171" font-family="Helvetica,sans-Serif" font-size="10.00" fill="#000000">&#45;MyString:string</text>
<text text-anchor="start" x="9.747" y="-159" font-family="Helvetica,sans-Serif" font-size="10.00" fill="#000000">+myString:string</text>
<polygon fill="none" stroke="#000000" points="0,-114 0,-146 92,-146 92,-114 0,-114"/>
<text text-anchor="start" x="14.7465" y="-127" font-family="Helvetica,sans-Serif" font-size="10.00" fill="#000000">+GetString():v</text>
</g>
<!-- A1 -->
<g id="node2" class="node">
<title>A1</title>
<polygon fill="none" stroke="#000000" points="0,-32 0,-64 92,-64 92,-32 0,-32"/>
<text text-anchor="start" x="9.615" y="-45" font-family="Helvetica,sans-Serif" font-size="10.00" fill="#000000">MyDerivedClass</text>
<polygon fill="none" stroke="#000000" points="0,0 0,-32 92,-32 92,0 0,0"/>
<text text-anchor="start" x="14.467" y="-13" font-family="Helvetica,sans-Serif" font-size="10.00" fill="#000000">+GetString():o</text>
</g>
<!-- A0&#45;&gt;A1 -->
<g id="edge1" class="edge">
<title>A0&#45;&gt;A1</title>
<path fill="none" stroke="#000000" d="M46,-103.4563C46,-89.7573 46,-75.8708 46,-64.0283"/>
<polygon fill="none" stroke="#000000" points="42.5001,-103.8584 46,-113.8584 49.5001,-103.8585 42.5001,-103.8584"/>
</g>
</g>
</svg>
