<?xml version="1.0" encoding="UTF-8" standalone="no"?>
<!DOCTYPE svg PUBLIC "-//W3C//DTD SVG 1.1//EN"
 "http://www.w3.org/Graphics/SVG/1.1/DTD/svg11.dtd">
<!-- Generated by graphviz version 2.40.1 (20161225.0304)
 -->
<!-- Title: G Pages: 1 -->
<svg width="218pt" height="254pt"
 viewBox="0.00 0.00 218.00 254.00" xmlns="http://www.w3.org/2000/svg" xmlns:xlink="http://www.w3.org/1999/xlink">
<g id="graph0" class="graph" transform="scale(1 1) rotate(0) translate(4 250)">
<title>G</title>
<polygon fill="#ffffff" stroke="transparent" points="-4,4 -4,-250 214,-250 214,4 -4,4"/>
<!-- A0 -->
<g id="node1" class="node">
<title>A0</title>
<polygon fill="none" stroke="#000000" points="6,-214 6,-246 97,-246 97,-214 6,-214"/>
<text text-anchor="start" x="24.415" y="-227" font-family="Helvetica,sans-Serif" font-size="10.00" fill="#000000">+A:HotDrink</text>
<polygon fill="none" stroke="#000000" points="6,-170 6,-214 97,-214 97,-170 6,-170"/>
<text text-anchor="start" x="28.8595" y="-195" font-family="Helvetica,sans-Serif" font-size="10.00" fill="#000000">+Milk:bool</text>
<text text-anchor="start" x="24.405" y="-183" font-family="Helvetica,sans-Serif" font-size="10.00" fill="#000000">+Sugar:byte</text>
<polygon fill="none" stroke="#000000" points="6,-114 6,-170 97,-170 97,-114 6,-114"/>
<text text-anchor="start" x="26.08" y="-151" font-family="Helvetica,sans-Serif" font-size="10.00" fill="#000000">+Drink:bool</text>
<text text-anchor="start" x="19.9655" y="-139" font-family="Helvetica,sans-Serif" font-size="10.00" fill="#000000">+AddMilk:byte</text>
<text text-anchor="start" x="15.5115" y="-127" font-family="Helvetica,sans-Serif" font-size="10.00" fill="#000000">+AddSugar:byte</text>
</g>
<!-- A2 -->
<g id="node3" class="node">
<title>A2</title>
<polygon fill="none" stroke="#000000" points="0,-32 0,-64 98,-64 98,-32 0,-32"/>
<text text-anchor="start" x="16.906" y="-45" font-family="Helvetica,sans-Serif" font-size="10.00" fill="#000000">+CupOfCoffee</text>
<polygon fill="none" stroke="#000000" points="0,0 0,-32 98,-32 98,0 0,0"/>
<text text-anchor="start" x="9.682" y="-13" font-family="Helvetica,sans-Serif" font-size="10.00" fill="#000000">+BeanType:string</text>
</g>
<!-- A0&#45;&gt;A2 -->
<g id="edge1" class="edge">
<title>A0&#45;&gt;A2</title>
<path fill="none" stroke="#000000" d="M49.9683,-103.6533C49.78,-89.7177 49.5932,-75.8933 49.4346,-64.1594"/>
<polygon fill="none" stroke="#000000" points="46.4704,-103.8401 50.1053,-113.7918 53.4698,-103.7454 46.4704,-103.8401"/>
</g>
<!-- A3 -->
<g id="node4" class="node">
<title>A3</title>
<polygon fill="none" stroke="#000000" points="116,-32 116,-64 210,-64 210,-32 116,-32"/>
<text text-anchor="start" x="137.0195" y="-45" font-family="Helvetica,sans-Serif" font-size="10.00" fill="#000000">+CupOfTea</text>
<polygon fill="none" stroke="#000000" points="116,0 116,-32 210,-32 210,0 116,0"/>
<text text-anchor="start" x="125.627" y="-13" font-family="Helvetica,sans-Serif" font-size="10.00" fill="#000000">+LeafType:string</text>
</g>
<!-- A0&#45;&gt;A3 -->
<g id="edge2" class="edge">
<title>A0&#45;&gt;A3</title>
<path fill="none" stroke="#000000" d="M102.6812,-111.707C115.2313,-95.1229 128.0725,-78.1543 138.6632,-64.1594"/>
<polygon fill="none" stroke="#000000" points="99.7982,-109.7166 96.5547,-119.8027 105.3801,-113.9407 99.7982,-109.7166"/>
</g>
<!-- A1 -->
<g id="node2" class="node">
<title>A1</title>
<polygon fill="none" stroke="#000000" points="116,-208 116,-240 208,-240 208,-208 116,-208"/>
<text text-anchor="start" x="148.5225" y="-221" font-family="Helvetica,sans-Serif" font-size="10.00" fill="#000000">+ICup</text>
<polygon fill="none" stroke="#000000" points="116,-164 116,-208 208,-208 208,-164 116,-164"/>
<text text-anchor="start" x="133.526" y="-189" font-family="Helvetica,sans-Serif" font-size="10.00" fill="#000000">+Color:string</text>
<text text-anchor="start" x="125.737" y="-177" font-family="Helvetica,sans-Serif" font-size="10.00" fill="#000000">+Volume:double</text>
<polygon fill="none" stroke="#000000" points="116,-120 116,-164 208,-164 208,-120 116,-120"/>
<text text-anchor="start" x="137.136" y="-145" font-family="Helvetica,sans-Serif" font-size="10.00" fill="#000000">+Refill:bool</text>
<text text-anchor="start" x="135.4645" y="-133" font-family="Helvetica,sans-Serif" font-size="10.00" fill="#000000">+Wash:bool</text>
</g>
<!-- A1&#45;&gt;A2 -->
<g id="edge3" class="edge">
<title>A1&#45;&gt;A2</title>
<path fill="none" stroke="#000000" d="M109.8574,-111.707C99.5694,-98.2325 89.0875,-84.504 79.7872,-72.323"/>
<polygon fill="#000000" stroke="#000000" points="116.0386,-119.8027 106.3933,-114.5854 113.0043,-115.8286 109.97,-111.8546 109.97,-111.8546 109.97,-111.8546 113.0043,-115.8286 113.5467,-109.1237 116.0386,-119.8027 116.0386,-119.8027"/>
<polygon fill="#000000" stroke="#000000" points="73.5541,-64.1594 83.1994,-69.3767 76.5884,-68.1335 79.6227,-72.1076 79.6227,-72.1076 79.6227,-72.1076 76.5884,-68.1335 76.046,-74.8384 73.5541,-64.1594 73.5541,-64.1594"/>
</g>
<!-- A1&#45;&gt;A3 -->
<g id="edge4" class="edge">
<title>A1&#45;&gt;A3</title>
<path fill="none" stroke="#000000" d="M162.4767,-109.4435C162.5579,-97.4268 162.6399,-85.2888 162.7142,-74.3007"/>
<polygon fill="#000000" stroke="#000000" points="162.4067,-119.8027 157.9745,-109.7725 162.4406,-114.8028 162.4744,-109.803 162.4744,-109.803 162.4744,-109.803 162.4406,-114.8028 166.9743,-109.8334 162.4067,-119.8027 162.4067,-119.8027"/>
<polygon fill="#000000" stroke="#000000" points="162.7827,-64.1594 167.2149,-74.1896 162.7489,-69.1593 162.715,-74.1592 162.715,-74.1592 162.715,-74.1592 162.7489,-69.1593 158.2151,-74.1287 162.7827,-64.1594 162.7827,-64.1594"/>
</g>
</g>
</svg>
